# AST/ASF file generated using VICON BodyLanguage
# -----------------------------------------------
:version 1.10
:name VICON
:units
  mass 1.0
  length 0.45
  angle deg
:documentation
   .ast/.asf automatically generated from VICON data using
   VICON BodyBuilder and BodyLanguage model FoxedUp or BRILLIANT.MOD
:root
   order TX TY TZ RX RY RZ
   axis XYZ
   position 0 0 0  
   orientation 0 0 0 
:bonedata
  begin
     id 1 
     name lhipjoint
     direction 0.567725 -0.736092 0.368589 
     length 2.42353 
     axis 0 0 0  XYZ
  end
  begin
     id 2 
     name lfemur
     direction 0.34202 -0.939693 0  
     length 7.24894  
     axis 0 0 20  XYZ
    dof rx ry rz
    limits (-160.0 20.0)
           (-70.0 70.0)
           (-60.0 70.0)
  end
  begin
     id 3 
     name ltibia
     direction 0.34202 -0.939693 0   
     length 7.6997   
     axis 0 0 20   XYZ
    dof rx
    limits (-10.0 170.0)
  end
  begin
     id 4 
     name lfoot
     direction 0.100767 -0.276854 0.955614   
     length 2.37556   
     axis -90 7.62852e-016 20   XYZ
    dof rx rz
    limits (-45.0 90.0)
           (-70.0 20.0)
  end
  begin
     id 5 
     name ltoes
     direction 1.53592e-011 -4.21894e-011 1   
     length 1.18363   
     axis -90 7.62852e-016 20   XYZ
    dof rx
    limits (-90.0 20.0)
  end
  begin
     id 6 
     name rhipjoint
     direction -0.556459 -0.742938 0.372017   
     length 2.4012  
     axis 0 0 0  XYZ 
  end
  begin
     id 7 
     name rfemur
     direction -0.34202 -0.939693 0   
     length 7.5119   
     axis 0 0 -20   XYZ
    dof rx ry rz
    limits (-160.0 20.0)
           (-70.0 70.0)
           (-70.0 60.0)
  end
  begin
     id 8 
     name rtibia
     direction -0.34202 -0.939693 0   
     length 7.50155   
     axis 0 0 -20   XYZ
    dof rx
    limits (-10.0 170.0)
 end
 begin
     id 9 
     name rfoot
     direction -0.118427 -0.325376 0.938139   
     length 2.32487  
     axis -90 -7.62852e-016 -20   XYZ
    dof rx rz
    limits (-45.0 90.0)
           (-20.0 70.0)
  end
  begin
     id 10 
     name rtoes
     direction -1.53525e-011 -4.21868e-011 1   
     length 1.15233   
     axis -90 -7.62852e-016 -20   XYZ
    dof rx
    limits (-90.0 20.0)
  end
  begin
     id 11 
     name lowerback
     direction 0.0287568 0.999577 -0.00434502   
     length 2.15243   
     axis 0 0 0   XYZ
    dof rx ry rz
    limits (-20.0 45.0)
           (-30.0 30.0)
           (-30.0 30.0)
  end
  begin
     id 12 
     name upperback
     direction 0.0294009 0.99956 0.00404628   
     length 2.15427   
     axis 0 0 0   XYZ
    dof rx ry rz
    limits (-20.0 45.0)
           (-30.0 30.0)
           (-30.0 30.0)
  end
  begin
     id 13 
     name thorax
     direction 0.0151014 0.999868 0.0059419   
     length 2.14898   
     axis 0 0 0   XYZ
    dof rx ry rz
    limits (-20.0 45.0)
           (-30.0 30.0)
           (-30.0 30.0)
  end
  begin
     id 14 
     name lowerneck
     direction -0.0249197 0.989906 0.139515   
     length 1.6861   
     axis 0 0 0   XYZ
    dof rx ry rz
    limits (-20.0 45.0)
           (-30.0 30.0)
           (-30.0 30.0)
  end
  begin
     id 15 
     name upperneck
     direction 0.0438463 0.988795 -0.142693   
     length 1.71276   
     axis 0 0 0   XYZ
    dof rx ry rz
    limits (-20.0 45.0)
           (-30.0 30.0)
           (-30.0 30.0)
  end
  begin
     id 16
     name head
     direction 0.0148499 0.997845 -0.0639186  
     length 1.7209  
     axis 0 0 0   XYZ
    dof rx ry rz
    limits (-20.0 45.0)
           (-30.0 30.0)
           (-30.0 30.0)
  end
  begin
     id 17 
     name lclavicle
     direction 0.940298 0.323464 -0.105876  
     length 3.9048  
     axis 0 0 0   XYZ
    dof ry rz
    limits (-20.0 10.0)
           (0.0 20.0)
  end
  begin
     id 18 
     name lhumerus
     direction 1 -4.48954e-011 -4.9675e-028   
     length 4.6851   
     axis 180 -30 -90   XYZ
    dof rx ry rz
    limits (-60.0 90.0)
           (-90.0 90.0)
           (-90.0 90.0)
  end
  begin
     id 19
     name lradius
     direction 1 -4.48992e-011 -1.03359e-026   
     length 3.39626   
     axis 180 -30 -90   XYZ
    dof rx
    limits (-10.0 170.0)
  end
  begin
     id 20
     name lwrist
     direction 1 -4.48906e-011 -1.67336e-026   
     length 1.69813   
     axis 9.90442e-015 90 90   XYZ
    dof ry
    limits (-180.0 0.0)
 end
  begin
     id 21 
     name lhand
     direction 1 -4.49006e-011 -3.34673e-026   
     length 0.486078   
     axis 2.1355e-014 90 90   XYZ
    dof rx rz
    limits (-90.0 90.0)
           (-45.0 45.0)
  end
  begin
     id 22 
     name lfingers
     direction 1 -4.48992e-011 -6.69345e-026   
     length 0.391889   
     axis 4.27099e-014 90 90   XYZ
    dof rx
    limits (0.0 90.0)
  end
  begin
     id 23
     name lthumb
     direction 0.707107 -6.34926e-011 0.707107   
     length 0.562676   
     axis -90 45 2.85299e-015   XYZ
    dof rx rz
    limits (-45.0 45.0)
           (-45.0 45.0)
  end
  begin
     id 24 
     name rclavicle
     direction -0.882459 0.414895 -0.221648   
     length 3.44646  
     axis 0 0 0   XYZ 
    dof ry rz
    limits (-10.0 20.0)
           (-20.0 0.0)
  end
  begin
     id 25 
     name rhumerus
     direction -1 -4.48962e-011 -2.37984e-027  
     length 5.55576   
     axis 180 30 90   XYZ
    dof rx ry rz
    limits (-90.0 60.0)
           (-90.0 90.0)
           (-90.0 90.0)
  end
  begin
     id 26 
     name rradius
     direction -1 -4.48982e-011 -6.86791e-027   
     length 3.32774   
     axis 180 30 90   XYZ
    dof rx
    limits (-10.0 170.0)
  end
  begin
     id 27 
     name rwrist
     direction -1 -4.48961e-011 -1.67336e-026   
     length 1.66387   
     axis 9.90442e-015 -90 -90   XYZ
    dof ry
    limits (-180.0 0.0)
  end
  begin
     id 28
     name rhand
     direction -1 -4.4897e-011 -3.34673e-026   
     length 0.507628   
     axis 2.1355e-014 -90 -90   XYZ
    dof rx rz
    limits (-90.0 90.0)
           (-45.0 45.0)
  end
  begin
     id 29
     name rfingers
     direction -1 -4.48854e-011 -6.69345e-026   
     length 0.409263   
     axis 4.27099e-014 -90 -90   XYZ
    dof rx
    limits (0.0 90.0)
  end
  begin
     id 30
     name rthumb
     direction -0.707107 -6.34913e-011 0.707107   
     length 0.587622   
     axis -90 -45 -2.85299e-015   XYZ
    dof rx rz
    limits (-45.0 45.0)
           (-45.0 45.0)
  end
:hierarchy
  begin
    root lhipjoint rhipjoint lowerback
    lhipjoint lfemur
    lfemur ltibia
    ltibia lfoot
    lfoot ltoes
    rhipjoint rfemur
    rfemur rtibia
    rtibia rfoot
    rfoot rtoes
    lowerback upperback
    upperback thorax
    thorax lowerneck lclavicle rclavicle
    lowerneck upperneck
    upperneck head
    lclavicle lhumerus
    lhumerus lradius
    lradius lwrist
    lwrist lhand lthumb
    lhand lfingers
    rclavicle rhumerus
    rhumerus rradius
    rradius rwrist
    rwrist rhand rthumb
    rhand rfingers
  end

#!OML:ASF E:\motion texture\Top Level 1\Subject 1\Session 1\male.ASF
:FULLY-SPECIFIED
:DEGREES
120
root 39.7839 17.6275 5.27136 131.109 -80.5498 -118.198
lowerback -1.9946 1.13743 6.94179
upperback 1.51222 1.10539 3.48766
thorax 2.75584 0.602671 -0.238286
lowerneck -13.8693 -0.351545 -5.00624
upperneck 14.3984 0.881596 -2.37833
head 6.68067 -0.0979481 0.131955
rclavicle 1.47101e-014 3.93594e-014
rhumerus -24.5272 -9.48171 -77.6337
rradius 21.7752
rwrist 15.4468
rhand -12.5862 -23.6158
rfingers 7.12502
rthumb 13.492 -53.1588
lclavicle 1.47101e-014 3.93594e-014
lhumerus -31.7007 19.9408 80.2215
lradius 24.7778
lwrist -31.9109
lhand -14.0675 18.8295
lfingers 7.12502
lthumb 12.064 48.4618
rfemur -2.62931 3.38502 32.9269
rtibia 16.1515
rfoot -13.3517 -5.21327
rtoes 4.64124
lfemur -35.733 2.41417 -5.5406
ltibia 20.2444
lfoot -7.4697 7.96616
ltoes -15.2764
121
root 39.694 17.6195 5.27827 131.576 -80.4488 -118.568
lowerback -2.02749 1.18548 6.93436
upperback 1.50529 1.1695 3.44334
thorax 2.77143 0.635827 -0.276281
lowerneck -13.9038 -0.354805 -4.9904
upperneck 14.2965 0.870504 -2.35092
head 6.65358 -0.0963927 0.137276
rclavicle -6.26172e-015 5.20816e-014
rhumerus -24.4858 -9.40457 -77.7491
rradius 21.8787
rwrist 15.3566
rhand -12.5985 -23.6326
rfingers 7.12502
rthumb 13.4802 -53.1764
lclavicle -6.26172e-015 5.20816e-014
lhumerus -31.8443 20.6261 79.7761
lradius 24.3201
lwrist -32.4661
lhand -14.0646 18.8301
lfingers 7.12502
lthumb 12.0669 48.4622
rfemur -2.50867 3.37813 32.9006
rtibia 16.3118
rfoot -13.3453 -5.07196
rtoes 4.13048
lfemur -35.6844 1.99849 -5.30977
ltibia 19.3279
lfoot -7.18226 8.10972
ltoes -15.173
122
root 39.6019 17.6117 5.28553 132.051 -80.3488 -118.953
lowerback -2.0621 1.23159 6.92153
upperback 1.50185 1.23103 3.3959
thorax 2.79146 0.667858 -0.314468
lowerneck -13.946 -0.356234 -4.97258
upperneck 14.1986 0.861538 -2.31931
head 6.62903 -0.093524 0.14382
rclavicle 1.77912e-014 3.06128e-014
rhumerus -24.4386 -9.34073 -77.8675
rradius 21.9809
rwrist 15.2686
rhand -12.6087 -23.6495
rfingers 7.12502
rthumb 13.4703 -53.1939
lclavicle 1.77912e-014 3.06128e-014
lhumerus -31.9903 21.3418 79.3109
lradius 23.8579
lwrist -33.0658
lhand -14.0429 18.8441
lfingers 7.12502
lthumb 12.0877 48.4749
rfemur -2.3911 3.36705 32.8659
rtibia 16.5036
rfoot -13.3294 -4.92608
rtoes 3.60565
lfemur -35.6223 1.57377 -5.08092
ltibia 18.4884
lfoot -6.8902 8.24487
ltoes -15.0386
123
root 39.5075 17.604 5.29313 132.546 -80.2498 -119.368
lowerback -2.09406 1.27548 6.90087
upperback 1.49311 1.29076 3.34617
thorax 2.80427 0.698676 -0.350869
lowerneck -13.9682 -0.353829 -4.95429
upperneck 14.1008 0.855737 -2.28515
head 6.60104 -0.0888475 0.151418
rclavicle 5.46658e-015 1.45113e-014
rhumerus -24.4042 -9.2812 -77.9855
rradius 22.0842
rwrist 15.1803
rhand -12.6187 -23.6737
rfingers 7.12502
rthumb 13.4607 -53.2187
lclavicle 5.46658e-015 1.45113e-014
lhumerus -32.1594 22.0813 78.8227
lradius 23.3928
lwrist -33.6899
lhand -14.0279 18.8539
lfingers 7.12502
lthumb 12.1022 48.4839
rfemur -2.27896 3.34931 32.8196
rtibia 16.731
rfoot -13.3011 -4.77147
rtoes 3.06834
lfemur -35.546 1.14779 -4.86008
ltibia 17.7274
lfoot -6.59086 8.36755
ltoes -14.8836
124
root 39.4109 17.5966 5.30109 133.059 -80.1536 -119.811
lowerback -2.11802 1.31651 6.87025
upperback 1.47757 1.3485 3.29468
thorax 2.80521 0.728009 -0.383943
lowerneck -13.9768 -0.34769 -4.93706
upperneck 14.0069 0.853878 -2.24855
head 6.5719 -0.0822433 0.160346
rclavicle 4.42296e-015 -1.39149e-015
rhumerus -24.3823 -9.2278 -78.1012
rradius 22.1868
rwrist 15.0938
rhand -12.6279 -23.6939
rfingers 7.12502
rthumb 13.4519 -53.2395
lclavicle 4.42296e-015 -1.39149e-015
lhumerus -32.353 22.8453 78.3109
lradius 22.9268
lwrist -34.3413
lhand -14.0158 18.8641
lfingers 7.12502
lthumb 12.1138 48.4934
rfemur -2.17468 3.32362 32.7598
rtibia 16.9966
rfoot -13.2571 -4.60805
rtoes 2.52443
lfemur -35.4569 0.726115 -4.65371
ltibia 17.0464
lfoot -6.28682 8.47265
ltoes -14.7018
125
root 39.3121 17.5897 5.30937 133.597 -80.0594 -120.288
lowerback -2.13894 1.35625 6.83033
upperback 1.46046 1.4055 3.24046
thorax 2.80258 0.756786 -0.41479
lowerneck -13.9812 -0.339047 -4.91873
upperneck 13.9177 0.854635 -2.20949
head 6.54356 -0.0742804 0.170122
rclavicle -2.17669e-014 -1.47101e-014
rhumerus -24.366 -9.18125 -78.2174
rradius 22.2896
rwrist 15.0071
rhand -12.6374 -23.7145
rfingers 7.12502
rthumb 13.4427 -53.2607
lclavicle -2.17669e-014 -1.47101e-014
lhumerus -32.5609 23.6311 77.7787
lradius 22.4618
lwrist -35.0247
lhand -14.0009 18.8756
lfingers 7.12502
lthumb 12.1282 48.5041
rfemur -2.08106 3.28921 32.6857
rtibia 17.3048
rfoot -13.1946 -4.43478
rtoes 1.9717
lfemur -35.3548 0.313357 -4.46476
ltibia 16.4454
lfoot -5.97718 8.55745
ltoes -14.4789
126
root 39.2111 17.5832 5.31802 134.155 -79.968 -120.796
lowerback -2.15862 1.39391 6.78224
upperback 1.44409 1.46033 3.18285
thorax 2.79977 0.784449 -0.444701
lowerneck -13.9819 -0.327128 -4.89951
upperneck 13.8317 0.859167 -2.16835
head 6.51555 -0.0643973 0.180771
rclavicle -7.55382e-015 1.03368e-014
rhumerus -24.351 -9.14297 -78.3353
rradius 22.3906
rwrist 14.9234
rhand -12.646 -23.7328
rfingers 7.12502
rthumb 13.4344 -53.2796
lclavicle -7.55382e-015 1.03368e-014
lhumerus -32.7807 24.4383 77.2261
lradius 22.0009
lwrist -35.7428
lhand -13.9727 18.893
lfingers 7.12502
lthumb 12.1554 48.5198
rfemur -1.99954 3.24478 32.5959
rtibia 17.6576
rfoot -13.1091 -4.25122
rtoes 1.422
lfemur -35.2386 -0.0842281 -4.29898
ltibia 15.9255
lfoot -5.6631 8.6154
ltoes -14.2198
127
root 39.108 17.5772 5.32703 134.735 -79.8795 -121.336
lowerback -2.16346 1.42979 6.72256
upperback 1.41952 1.51533 3.12424
thorax 2.77976 0.811503 -0.469757
lowerneck -13.9801 -0.312132 -4.88174
upperneck 13.7582 0.868145 -2.12644
head 6.49108 -0.0528263 0.1923
rclavicle 7.95139e-015 4.27387e-014
rhumerus -24.3499 -9.10738 -78.4494
rradius 22.4911
rwrist 14.8394
rhand -12.655 -23.7469
rfingers 7.12502
rthumb 13.4258 -53.2943
lclavicle 7.95139e-015 4.27387e-014
lhumerus -33.0259 25.2576 76.6545
lradius 21.5462
lwrist -36.4814
lhand -13.9484 18.9071
lfingers 7.12502
lthumb 12.1788 48.5325
rfemur -1.93456 3.18782 32.4891
rtibia 18.0585
rfoot -12.9955 -4.056
rtoes 0.872014
lfemur -35.1101 -0.460922 -4.16059
ltibia 15.485
lfoot -5.34482 8.64226
ltoes -13.9202
128
root 39.0027 17.5719 5.33636 135.327 -79.7956 -121.901
lowerback -2.16326 1.46284 6.65301
upperback 1.39137 1.5678 3.06316
thorax 2.7528 0.837006 -0.492228
lowerneck -13.9634 -0.293002 -4.86352
upperneck 13.6862 0.881523 -2.08417
head 6.46449 -0.0391126 0.204276
rclavicle -5.46658e-016 1.31198e-014
rhumerus -24.3593 -9.07346 -78.5638
rradius 22.5923
rwrist 14.7559
rhand -12.6625 -23.764
rfingers 7.12502
rthumb 13.4185 -53.3118
lclavicle -5.46658e-016 1.31198e-014
lhumerus -33.2929 26.0858 76.0638
lradius 21.1015
lwrist -37.2426
lhand -13.917 18.923
lfingers 7.12502
lthumb 12.2092 48.5467
rfemur -1.88568 3.11884 32.3654
rtibia 18.5078
rfoot -12.8474 -3.85232
rtoes 0.352137
lfemur -34.9674 -0.812637 -4.05435
ltibia 15.1227
lfoot -5.02541 8.63251
ltoes -13.5818
